<svg width="278" height="57" viewBox="0 0 278 57" fill="none" xmlns="http://www.w3.org/2000/svg">
<path d="M9.775 1.36C17.765 1.36 25.4717 5.61 32.895 14.11C35.1617 18.5867 36.295 22.9217 36.295 27.115C36.295 36.975 31.28 44.2283 21.25 48.875C18.02 50.2917 14.535 51 10.795 51H8.67C6.57333 50.9433 5.525 50.065 5.525 48.365H5.27C5.27 46.835 6.23333 46.0417 8.16 45.985H10.115V45.475H10.285C6.77167 30.5717 5.015 19.4933 5.015 12.24H4.76L2.635 13.6C1.16167 13.6 0.283333 12.6083 0 10.625C0 7.50833 1.75667 4.78833 5.27 2.465C6.68667 1.72833 8.18833 1.36 9.775 1.36ZM10.795 6.375H10.115V10.455C10.115 19.7483 11.8717 31.4217 15.385 45.475H15.64C26.1233 42.6417 31.365 36.5217 31.365 27.115C31.365 17.0283 25.5 10.285 13.77 6.885C13.09 6.545 12.0983 6.375 10.795 6.375ZM43.6276 3.91C44.9876 3.91 45.8659 4.61833 46.2626 6.035L45.7526 11.05V12.665C47.1692 24.395 48.0476 33.5183 48.3876 40.035C49.0109 46.0983 49.6626 49.13 50.3426 49.13C50.3426 50.32 49.3509 51.085 47.3676 51.425C44.5342 51.425 43.1176 45.7017 43.1176 34.255L40.7376 12.155V11.39C40.7376 6.40333 41.7009 3.91 43.6276 3.91ZM80.412 0.679999H81.262C82.8487 0.679999 83.7553 1.615 83.982 3.485C83.982 5.12833 81.7437 5.95 77.267 5.95C70.0703 8.67 65.2253 12.6367 62.732 17.85L62.137 20.315V20.825C62.137 23.3183 63.8087 24.565 67.152 24.565L76.502 24.055C82.792 24.055 87.042 27.115 89.252 33.235L89.762 36.21C89.762 42.1033 85.002 47.4867 75.482 52.36C72.6487 53.1533 70.1553 53.6917 68.002 53.975C62.222 53.975 58.142 50.7167 55.762 44.2C55.082 41.99 54.742 39.7517 54.742 37.485C54.742 36.805 55.2803 36.0967 56.357 35.36H57.377C59.1337 35.36 60.012 37.5983 60.012 42.075C61.4853 46.495 63.8087 48.705 66.982 48.705H69.277C73.867 48.705 78.4003 46.0417 82.877 40.715C84.067 39.015 84.662 37.1733 84.662 35.19C84.662 32.4133 82.4803 30.4583 78.117 29.325H77.777L66.642 29.58C60.4653 28.8433 57.377 26.2933 57.377 21.93L57.037 20.825C57.037 14.9883 61.4003 9.32166 70.127 3.825C73.9237 1.72833 77.352 0.679999 80.412 0.679999ZM100.139 3.655C102.122 3.655 103.114 7.11166 103.114 14.025L103.624 27.285H103.794L117.394 22.015C118.754 10.455 120 4.675 121.134 4.675L122.239 4.505C123.202 4.505 124.08 5.27 124.874 6.8C122.89 16.5467 121.899 24.99 121.899 32.13V35.785C121.899 40.9983 123.145 45.9567 125.639 50.66C125.072 52.2467 124.165 53.04 122.919 53.04C120.199 53.04 118.187 47.5433 116.884 36.55V27.88H116.374C107.874 30.8833 103.624 32.81 103.624 33.66C103.624 47.1467 102.377 53.89 99.8836 53.89H99.5436C98.3536 53.89 97.5886 52.8983 97.2486 50.915C98.0986 44.7383 98.5236 39.95 98.5236 36.55L94.7836 38.505L94.0186 38.675C92.602 38.165 91.8936 37.2867 91.8936 36.04C91.8936 34.7933 94.1036 32.8383 98.5236 30.175V30.005C98.3536 20.2583 97.9853 12.1833 97.4186 5.78C97.4186 4.53333 98.3253 3.825 100.139 3.655ZM154.953 0.679999H155.803C157.39 0.679999 158.296 1.615 158.523 3.485C158.523 5.12833 156.285 5.95 151.808 5.95C144.611 8.67 139.766 12.6367 137.273 17.85L136.678 20.315V20.825C136.678 23.3183 138.35 24.565 141.693 24.565L151.043 24.055C157.333 24.055 161.583 27.115 163.793 33.235L164.303 36.21C164.303 42.1033 159.543 47.4867 150.023 52.36C147.19 53.1533 144.696 53.6917 142.543 53.975C136.763 53.975 132.683 50.7167 130.303 44.2C129.623 41.99 129.283 39.7517 129.283 37.485C129.283 36.805 129.821 36.0967 130.898 35.36H131.918C133.675 35.36 134.553 37.5983 134.553 42.075C136.026 46.495 138.35 48.705 141.523 48.705H143.818C148.408 48.705 152.941 46.0417 157.418 40.715C158.608 39.015 159.203 37.1733 159.203 35.19C159.203 32.4133 157.021 30.4583 152.658 29.325H152.318L141.183 29.58C135.006 28.8433 131.918 26.2933 131.918 21.93L131.578 20.825C131.578 14.9883 135.941 9.32166 144.668 3.825C148.465 1.72833 151.893 0.679999 154.953 0.679999ZM178.675 5.015L180.8 4.675H181.65C182.783 4.675 184.03 5.38333 185.39 6.8C187.883 6.8 191.425 9.91666 196.015 16.15C199.925 23.5167 201.88 30.0617 201.88 35.785C201.88 43.605 199.046 48.8183 193.38 51.425L188.025 52.53C179.525 52.53 173.405 46.155 169.665 33.405C168.815 30.0617 168.39 26.8033 168.39 23.63V22.78C168.39 13.2033 171.818 7.28166 178.675 5.015ZM177.91 13.175L176.04 12.41C174.283 14.5067 173.405 17.5383 173.405 21.505V23.8C173.405 34.2833 176.946 41.905 184.03 46.665L186.41 47.175H189.64C192.586 47.175 194.711 45.3333 196.015 41.65L196.525 37.91V35.275C196.525 26.775 193.153 19.1533 186.41 12.41L182.925 11.39H182.755C181.621 11.39 180.006 11.985 177.91 13.175ZM216.111 5.015L218.236 4.675H219.086C220.22 4.675 221.466 5.38333 222.826 6.8C225.32 6.8 228.861 9.91666 233.451 16.15C237.361 23.5167 239.316 30.0617 239.316 35.785C239.316 43.605 236.483 48.8183 230.816 51.425L225.461 52.53C216.961 52.53 210.841 46.155 207.101 33.405C206.251 30.0617 205.826 26.8033 205.826 23.63V22.78C205.826 13.2033 209.255 7.28166 216.111 5.015ZM215.346 13.175L213.476 12.41C211.72 14.5067 210.841 17.5383 210.841 21.505V23.8C210.841 34.2833 214.383 41.905 221.466 46.665L223.846 47.175H227.076C230.023 47.175 232.148 45.3333 233.451 41.65L233.961 37.91V35.275C233.961 26.775 230.59 19.1533 223.846 12.41L220.361 11.39H220.191C219.058 11.39 217.443 11.985 215.346 13.175ZM249.213 4.08C251.876 4.93 256.948 15.2717 264.428 35.105L265.703 36.635V31.875C265.703 19.2383 268.819 10.3133 275.053 5.1C276.469 5.1 277.348 6.06333 277.688 7.99C273.438 14.3367 271.313 19.465 271.313 23.375C271.029 23.375 270.859 25.16 270.803 28.73V33.235C270.803 37.145 271.228 42.7267 272.078 49.98C271.568 51.3967 270.661 52.105 269.358 52.105C268.054 52.105 266.213 49.4417 263.833 44.115C260.943 39.525 257.769 32.555 254.313 23.205H253.973V23.715L254.483 34.51C254.483 45.6733 252.358 52.87 248.108 56.1L245.983 56.355C244.226 56.355 242.753 54.74 241.563 51.51C241.959 49.7533 242.838 48.875 244.198 48.875H244.708L246.323 50.235H246.578C248.561 47.5717 249.553 42.5283 249.553 35.105C249.553 27.625 248.476 18.1617 246.323 6.715C246.323 5.185 247.286 4.30666 249.213 4.08Z" fill="black"/>
</svg>
