<svg width="217" height="32" viewBox="0 0 217 32" fill="none" xmlns="http://www.w3.org/2000/svg">
<path d="M11.592 4.688H11.952C12.624 4.688 13.008 5.084 13.104 5.876C13.104 6.572 12.156 6.92 10.26 6.92C7.212 8.072 5.16 9.752 4.104 11.96L3.852 13.004V13.22C3.852 14.276 4.56 14.804 5.976 14.804L9.936 14.588C12.6 14.588 14.4 15.884 15.336 18.476L15.552 19.736C15.552 22.232 13.536 24.512 9.504 26.576C8.304 26.912 7.248 27.14 6.336 27.26C3.888 27.26 2.16 25.88 1.152 23.12C0.864 22.184 0.72 21.236 0.72 20.276C0.72 19.988 0.948 19.688 1.404 19.376H1.836C2.58 19.376 2.952 20.324 2.952 22.22C3.576 24.092 4.56 25.028 5.904 25.028H6.876C8.82 25.028 10.74 23.9 12.636 21.644C13.14 20.924 13.392 20.144 13.392 19.304C13.392 18.128 12.468 17.3 10.62 16.82H10.476L5.76 16.928C3.144 16.616 1.836 15.536 1.836 13.688L1.692 13.22C1.692 10.748 3.54 8.348 7.236 6.02C8.844 5.132 10.296 4.688 11.592 4.688ZM20.7388 13.796L22.2148 13.58C22.8148 13.58 23.1508 13.952 23.2228 14.696C23.2228 15.344 22.4428 15.764 20.8828 15.956C19.8988 16.724 19.4068 17.708 19.4068 18.908V20.096C19.8868 22.736 20.7028 24.056 21.8548 24.056H22.2148C22.8868 24.056 23.8948 23.42 25.2388 22.148H25.4548C25.9348 22.148 26.3188 22.484 26.6068 23.156C26.2708 24.188 25.1908 25.124 23.3668 25.964C23.0308 26.108 22.6108 26.18 22.1068 26.18C19.6348 26.18 18.0268 24.236 17.2828 20.348V19.556C17.2828 16.748 18.4348 14.828 20.7388 13.796ZM35.1543 12.104C36.2103 12.104 36.7383 12.524 36.7383 13.364L36.4143 14.048L36.1983 20.636C36.1983 23.612 36.7983 25.46 37.9983 26.18L38.0703 26.72C37.9983 27.416 37.6743 27.764 37.0983 27.764H36.8823C35.0823 26.54 34.1823 24.668 34.1823 22.148H33.9303C32.9703 24.836 31.8063 26.18 30.4383 26.18C29.1663 25.82 28.5303 24.872 28.5303 23.336C28.5303 19.952 29.8863 16.58 32.5983 13.22C33.5103 12.476 34.3623 12.104 35.1543 12.104ZM30.7983 21.896L30.6543 22.904V23.588H31.0143C32.8143 19.1 33.7143 16.364 33.7143 15.38H33.5703C32.1783 16.94 31.2543 19.112 30.7983 21.896ZM43.614 13.868C45.654 14.036 46.674 15.032 46.674 16.856L46.746 17.324L46.674 22.94C46.674 23.588 47.046 24.464 47.79 25.568V25.64C47.598 26.336 47.25 26.684 46.746 26.684C45.258 26.06 44.514 24.74 44.514 22.724V22.256L44.406 22.184L44.514 22.04V21.968L44.622 17C44.622 16.304 44.322 15.956 43.722 15.956H43.29C42.09 16.436 41.49 19.064 41.49 23.84C41.49 25.496 41.07 26.324 40.23 26.324C39.582 26.324 39.246 25.916 39.222 25.1V21.5C39.222 16.844 39.63 14.516 40.446 14.516L40.806 14.408L41.562 14.516C42.21 14.084 42.894 13.868 43.614 13.868ZM53.0944 19.448C54.3424 20 55.0864 21.692 55.3264 24.524C55.3264 27.14 54.3064 29.54 52.2664 31.724L51.8344 31.94C51.0904 31.7 50.7184 31.328 50.7184 30.824L52.1944 28.448C52.7944 27.224 53.0944 25.988 53.0944 24.74V23.408C53.0944 22.808 52.7224 21.908 51.9784 20.708V20.564C52.1464 19.82 52.5184 19.448 53.0944 19.448ZM77.0729 12.428C78.8489 12.428 80.1929 13.748 81.1049 16.388L81.2489 17.144C81.2489 19.712 80.0489 22.34 77.6489 25.028C76.6889 25.916 75.7169 26.36 74.7329 26.36C73.2929 26.36 72.2729 25.532 71.6729 23.876C71.4569 23.108 71.3489 22.436 71.3489 21.86V21.428C71.3489 17.636 72.7289 14.756 75.4889 12.788C75.9689 12.548 76.4969 12.428 77.0729 12.428ZM73.4729 21.788C73.4729 23.42 73.8929 24.236 74.7329 24.236C76.4849 24.236 77.9369 21.992 79.0889 17.504V16.82C78.6809 15.332 77.9249 14.588 76.8209 14.588C76.3889 14.588 76.1729 14.888 76.1729 15.488C76.1729 15.896 75.6929 16.22 74.7329 16.46C73.8929 17.876 73.4729 19.652 73.4729 21.788ZM87.5962 11.816C89.1082 11.816 90.0082 12.872 90.2962 14.984V15.308C90.2962 17.636 89.0962 19.772 86.6962 21.716C88.0882 23.084 90.5242 23.768 94.0042 23.768C94.5322 23.936 94.7962 24.308 94.7962 24.884C94.7962 25.532 94.3762 25.856 93.5362 25.856C91.1842 25.856 88.7122 25.256 86.1202 24.056V25.1C86.1202 27.572 85.5922 28.808 84.5362 28.808C83.7922 28.808 83.4202 27.38 83.4202 24.524V21.716L83.3122 20.708L83.5642 19.556L83.3122 16.1V15.956C83.3122 15.308 83.6482 14.864 84.3202 14.624C85.2562 12.752 86.3482 11.816 87.5962 11.816ZM85.7962 19.7C86.4922 19.7 87.2722 18.452 88.1362 15.956V14.408L87.7042 13.94H87.3802C86.3242 14.66 85.7962 16.58 85.7962 19.7ZM104.453 6.236C104.861 6.236 105.233 6.62 105.569 7.388L103.985 17.396V20.204C103.985 23.132 104.441 24.596 105.353 24.596C105.953 24.884 106.253 25.268 106.253 25.748C106.253 26.3 105.773 26.624 104.813 26.72C103.757 26.72 102.929 25.748 102.329 23.804H101.969C101.081 25.748 100.001 26.72 98.7286 26.72C97.2406 26.72 96.3406 25.592 96.0286 23.336C96.0286 20.72 97.7806 17.948 101.285 15.02C101.981 15.02 102.329 14.048 102.329 12.104C102.857 8.192 103.565 6.236 104.453 6.236ZM98.1526 23.048V24.02L98.7286 24.596H98.9446C99.7126 24.596 100.613 22.28 101.645 17.648H101.429C99.2446 19.832 98.1526 21.632 98.1526 23.048ZM110.764 13.076C111.724 13.1 113.344 14.78 115.624 18.116L115.696 18.728C115.696 19.4 114.052 19.916 110.764 20.276L110.656 20.384V20.528C111.16 22.688 111.688 23.768 112.24 23.768H112.672C113.44 23.768 114.604 22.94 116.164 21.284H116.38C116.86 21.284 117.232 21.632 117.496 22.328C117.496 22.904 116.488 23.9 114.472 25.316C113.944 25.628 113.308 25.856 112.564 26C110.62 26 109.264 24.176 108.496 20.528C107.392 20.36 106.84 19.904 106.84 19.16C106.84 18.632 107.248 18.284 108.064 18.116V18.26L108.424 18.116V17.216C108.424 14.456 109.204 13.076 110.764 13.076ZM110.98 15.668H110.656L110.512 17V18.116H110.656C112 18.068 112.672 17.924 112.672 17.684C112.048 16.748 111.484 16.076 110.98 15.668ZM123.631 11.816C125.143 11.816 126.043 12.872 126.331 14.984V15.308C126.331 17.636 125.131 19.772 122.731 21.716C124.123 23.084 126.559 23.768 130.039 23.768C130.567 23.936 130.831 24.308 130.831 24.884C130.831 25.532 130.411 25.856 129.571 25.856C127.219 25.856 124.747 25.256 122.155 24.056V25.1C122.155 27.572 121.627 28.808 120.571 28.808C119.827 28.808 119.455 27.38 119.455 24.524V21.716L119.347 20.708L119.599 19.556L119.347 16.1V15.956C119.347 15.308 119.683 14.864 120.355 14.624C121.291 12.752 122.383 11.816 123.631 11.816ZM121.831 19.7C122.527 19.7 123.307 18.452 124.171 15.956V14.408L123.739 13.94H123.415C122.359 14.66 121.831 16.58 121.831 19.7ZM148.91 0.259999L149.486 0.115999C150.374 0.115999 151.274 1.016 152.186 2.816L152.51 4.76C152.51 6.248 151.73 9.584 150.17 14.768V14.876C150.266 16.196 151.322 18.824 153.338 22.76L153.41 22.868L153.77 23.084C154.514 21.308 154.886 19.556 154.886 17.828V15.884C154.886 14.228 154.166 13.1 152.726 12.5L152.51 11.744C152.51 11.36 152.81 11.012 153.41 10.7C154.466 10.7 155.522 11.672 156.578 13.616C156.842 14.576 157.034 15.704 157.154 17C157.154 18.944 156.554 21.644 155.354 25.1C155.354 25.292 156.026 25.82 157.37 26.684L157.478 27.044C157.262 27.788 156.854 28.16 156.254 28.16C156.038 28.16 155.366 27.812 154.238 27.116C152.51 29.156 150.806 30.176 149.126 30.176C147.878 30.176 146.906 29.36 146.21 27.728C145.994 27.2 145.886 26.444 145.886 25.46V25.244C145.886 23.012 146.522 19.592 147.794 14.984V14.876C146.882 10.604 146.426 7.532 146.426 5.66C146.714 2.06 147.542 0.259999 148.91 0.259999ZM149.27 2.384C148.814 3.008 148.586 4.076 148.586 5.588C148.586 7.076 148.742 8.672 149.054 10.376H149.126C149.894 8.888 150.278 7.244 150.278 5.444V4.076C150.086 2.948 149.75 2.384 149.27 2.384ZM149.126 18.944H149.054C148.358 20.96 148.01 22.988 148.01 25.028V25.928C148.01 26.936 148.286 27.608 148.838 27.944H149.378C150.722 27.944 151.814 27.116 152.654 25.46C151.262 23.42 150.134 21.272 149.27 19.016L149.126 18.944ZM176.084 13.076C177.044 13.1 178.664 14.78 180.944 18.116L181.016 18.728C181.016 19.4 179.372 19.916 176.084 20.276L175.976 20.384V20.528C176.48 22.688 177.008 23.768 177.56 23.768H177.992C178.76 23.768 179.924 22.94 181.484 21.284H181.7C182.18 21.284 182.552 21.632 182.816 22.328C182.816 22.904 181.808 23.9 179.792 25.316C179.264 25.628 178.628 25.856 177.884 26C175.94 26 174.584 24.176 173.816 20.528C172.712 20.36 172.16 19.904 172.16 19.16C172.16 18.632 172.568 18.284 173.384 18.116V18.26L173.744 18.116V17.216C173.744 14.456 174.524 13.076 176.084 13.076ZM176.3 15.668H175.976L175.832 17V18.116H175.976C177.32 18.068 177.992 17.924 177.992 17.684C177.368 16.748 176.804 16.076 176.3 15.668ZM190.932 12.104C191.988 12.104 192.516 12.524 192.516 13.364L192.192 14.048L191.976 20.636C191.976 23.612 192.576 25.46 193.776 26.18L193.848 26.72C193.776 27.416 193.452 27.764 192.876 27.764H192.66C190.86 26.54 189.96 24.668 189.96 22.148H189.708C188.748 24.836 187.584 26.18 186.216 26.18C184.944 25.82 184.308 24.872 184.308 23.336C184.308 19.952 185.664 16.58 188.376 13.22C189.288 12.476 190.14 12.104 190.932 12.104ZM186.576 21.896L186.432 22.904V23.588H186.792C188.592 19.1 189.492 16.364 189.492 15.38H189.348C187.956 16.94 187.032 19.112 186.576 21.896ZM199.463 11.816C200.975 11.816 201.875 12.872 202.163 14.984V15.308C202.163 17.636 200.963 19.772 198.563 21.716C199.955 23.084 202.391 23.768 205.871 23.768C206.399 23.936 206.663 24.308 206.663 24.884C206.663 25.532 206.243 25.856 205.403 25.856C203.051 25.856 200.579 25.256 197.987 24.056V25.1C197.987 27.572 197.459 28.808 196.403 28.808C195.659 28.808 195.287 27.38 195.287 24.524V21.716L195.179 20.708L195.431 19.556L195.179 16.1V15.956C195.179 15.308 195.515 14.864 196.187 14.624C197.123 12.752 198.215 11.816 199.463 11.816ZM197.663 19.7C198.359 19.7 199.139 18.452 200.003 15.956V14.408L199.571 13.94H199.247C198.191 14.66 197.663 16.58 197.663 19.7ZM212.54 13.868C214.58 14.036 215.6 15.032 215.6 16.856L215.672 17.324L215.6 22.94C215.6 23.588 215.972 24.464 216.716 25.568V25.64C216.524 26.336 216.176 26.684 215.672 26.684C214.184 26.06 213.44 24.74 213.44 22.724V22.256L213.332 22.184L213.44 22.04V21.968L213.548 17C213.548 16.304 213.248 15.956 212.648 15.956H212.216C211.016 16.436 210.416 19.064 210.416 23.84C210.416 25.496 209.996 26.324 209.156 26.324C208.508 26.324 208.172 25.916 208.148 25.1V21.5C208.148 16.844 208.556 14.516 209.372 14.516L209.732 14.408L210.488 14.516C211.136 14.084 211.82 13.868 212.54 13.868Z" fill="black"/>
</svg>
